Coordinates
version=1
nRows=6
nColumns=63
inDegrees=yes

Units are S.I. units (second, meters, Newtons, ...)
If the header above contains a line with 'inDegrees', this indicates whether rotational values are in degrees (yes) or radians (no).

endheader
time	pelvis_tilt	pelvis_list	pelvis_rotation	pelvis_tx	pelvis_ty	pelvis_tz	hip_flexion_r	hip_adduction_r	hip_rotation_r	knee_angle_r	knee_angle_r_beta	ankle_angle_r	subtalar_angle_r	mtp_angle_r	hip_flexion_l	hip_adduction_l	hip_rotation_l	knee_angle_l	knee_angle_l_beta	ankle_angle_l	subtalar_angle_l	mtp_angle_l	L5_S1_Flex_Ext	L5_S1_Lat_Bending	L5_S1_axial_rotation	L4_L5_Flex_Ext	L4_L5_Lat_Bending	L4_L5_axial_rotation	L3_L4_Flex_Ext	L3_L4_Lat_Bending	L3_L4_axial_rotation	L2_L3_Flex_Ext	L2_L3_Lat_Bending	L2_L3_axial_rotation	L1_L2_Flex_Ext	L1_L2_Lat_Bending	L1_L2_axial_rotation	L1_T12_Flex_Ext	L1_T12_Lat_Bending	L1_T12_axial_rotation	Abs_r3	Abs_r2	Abs_r1	Abs_t1	Abs_t2	neck_flexion	neck_bending	neck_rotation	arm_flex_r	arm_add_r	arm_rot_r	elbow_flex_r	pro_sup_r	wrist_flex_r	wrist_dev_r	arm_flex_l	arm_add_l	arm_rot_l	elbow_flex_l	pro_sup_l	wrist_flex_l	wrist_dev_l
      4.09200000	    -43.73569838	     -1.10134472	     -3.22872253	     -0.24851885	      1.03970845	      0.25265715	    104.81227035	     -8.16055565	     -5.42415643	     79.54657151	      1.38834958	     11.34704695	     -1.41410647	      0.00000000	     86.85379848	     -9.53730451	      0.22519839	     86.79589666	      1.51487417	      5.76210813	      1.29259645	      0.00000000	     -0.04003483	      0.08786337	      0.09535126	     -0.07434868	      0.11685828	      0.10131072	     -0.06577322	      0.21363100	      0.10131072	     -0.04575580	      0.21363100	      0.08343235	     -0.03717634	      0.17917099	      0.07747290	     -0.02287590	      0.13610036	      0.07151345	     -0.28596476	      0.99392803	      0.53031512	      0.00000000	      0.00000000	     -0.00000000	      0.00000000	      0.00000000	     70.99247467	    -15.14635223	     26.33767957	     37.38473994	     45.96394946	      0.00000000	      5.00000316	     74.80532203	     -9.60847386	     27.13947730	     33.83323983	     54.31295344	      0.00000000	      5.00000316
      4.10000000	    -43.68813593	     -0.79376563	     -2.42764389	     -0.24807976	      1.03961898	      0.25206569	    103.46810619	     -8.76107334	     -5.25782395	     77.19002685	      1.34722012	     10.68653577	     -1.15931458	      0.00000000	     87.84280336	     -8.87535495	      0.03875359	     89.21646289	      1.55712102	      6.06947090	      1.26170588	      0.00000000	     -0.04088965	      0.03963320	     -0.05207827	     -0.07593617	      0.05271215	     -0.05533316	     -0.06717760	      0.09636416	     -0.05533316	     -0.04673278	      0.09636416	     -0.04556848	     -0.03797013	      0.08082002	     -0.04231359	     -0.02336434	      0.06139182	     -0.03905870	     -0.29207067	      0.44833866	     -0.28964370	      0.00000000	      0.00000000	     -0.00000000	      0.00000000	      0.00000000	     70.85300307	    -15.12003585	     26.30462183	     37.42580613	     45.95962357	      0.00000000	      5.00000314	     74.85861127	     -9.64992959	     27.14442079	     33.87373692	     54.32402014	      0.00000000	      5.00000314
      4.10800000	    -43.70854602	     -1.36702968	     -1.98363409	     -0.24759731	      1.03973905	      0.25134365	    101.71035837	     -9.19109598	     -6.20954893	     74.50021134	      1.30027398	     10.12083264	     -0.76439543	      0.00000000	     89.25575931	     -8.60728235	      0.89119009	     91.80063870	      1.60222340	      5.81417689	      1.36309185	      0.00000000	     -0.03900049	      0.11668948	     -0.13891107	     -0.07242781	      0.15519701	     -0.14759301	     -0.06407391	      0.28371881	     -0.14759301	     -0.04457366	      0.28371881	     -0.12154718	     -0.03621586	      0.23795320	     -0.11286524	     -0.02228488	      0.18075201	     -0.10418330	     -0.27857661	      1.32001478	     -0.77258169	      0.00000000	      0.00000000	     -0.00000000	      0.00000000	      0.00000000	     70.93697718	    -15.01345095	     26.04321801	     37.20696236	     45.92453015	      0.00000000	      5.00000307	     74.64197495	     -9.73707495	     27.31879227	     34.13057277	     54.39737424	      0.00000000	      5.00000307
      4.11700000	    -43.71440064	     -1.59941801	     -1.51654250	     -0.24715297	      1.03981505	      0.25070923	    100.12558462	     -9.59356778	     -6.86774451	     71.97227391	      1.25615315	      9.08415782	     -0.64953058	      0.00000000	     90.57259218	     -8.23637221	      1.36865413	     94.29283116	      1.64572036	      5.89001580	      1.39919821	      0.00000000	     -0.03833554	      0.14544886	     -0.22500770	     -0.07119293	      0.19344698	     -0.23907068	     -0.06298146	      0.35364435	     -0.23907068	     -0.04381369	      0.35364435	     -0.19688173	     -0.03559838	      0.29659931	     -0.18281875	     -0.02190493	      0.22530028	     -0.16875577	     -0.27382691	      1.64534654	     -1.25142531	      0.00000000	      0.00000000	     -0.00000000	      0.00000000	      0.00000000	     70.99476772	    -15.01951092	     26.06241754	     37.10635016	     45.93051458	      0.00000000	      5.00000300	     74.52683637	     -9.75183089	     27.33705344	     34.31151444	     54.44472349	      0.00000000	      5.00000300
      4.12500000	    -43.73542906	     -1.88505026	     -1.21715542	     -0.24671136	      1.03995609	      0.25018611	     98.51801421	     -9.83251926	     -7.69704404	     69.41567846	      1.21153214	      7.71326191	     -0.77441264	      0.00000000	     91.96506637	     -7.98850567	      1.93286937	     96.76021348	      1.68878431	      5.91422886	      1.46989014	      0.00000000	     -0.03597237	      0.18295838	     -0.28093272	     -0.06680428	      0.24333464	     -0.29849102	     -0.05909900	      0.44484499	     -0.29849102	     -0.04111282	      0.44484499	     -0.24581613	     -0.03340394	      0.37308872	     -0.22825784	     -0.02055461	      0.28340252	     -0.21069954	     -0.25694701	      2.06966173	     -1.56246352	      0.00000000	      0.00000000	     -0.00000000	      0.00000000	      0.00000000	     71.09315056	    -15.06407547	     26.16306623	     36.97734090	     45.94918791	      0.00000000	      5.00000293	     74.38613073	     -9.76000685	     27.35518875	     34.50542869	     54.49294160	      0.00000000	      5.00000293
      4.13300000	    -43.75701740	     -2.27557720	     -1.01855758	     -0.24637737	      1.04014098	      0.24993370	     96.89402754	     -9.92741503	     -8.70451193	     66.86645313	      1.16703977	      6.05317844	     -1.24712552	      0.00000000	     93.43136704	     -7.84423277	      2.60225428	     99.17678663	      1.73096147	      5.96758160	      1.59262621	      0.00000000	     -0.03851958	      0.22880256	     -0.31589805	     -0.07153471	      0.30430741	     -0.33564168	     -0.06328381	      0.55631055	     -0.33564168	     -0.04402402	      0.55631055	     -0.27641079	     -0.03576928	      0.46657418	     -0.25666716	     -0.02201009	      0.35441517	     -0.23692354	     -0.27514149	      2.58826033	     -1.75693017	      0.00000000	      0.00000000	     -0.00000000	      0.00000000	      0.00000000	     71.25197026	    -15.14631769	     26.41805159	     36.84709944	     45.99222645	      0.00000000	      5.00000285	     74.29252179	     -9.71106056	     27.34686651	     34.74281527	     54.54724878	      0.00000000	      5.00000285
